# xmcd
# 
# Track frame offsets:
#     183
#     50550
#     77980
#     120268
#     142860
#     167925
#     195800
# 
# Disc length: 3438
# 
# Revision: 2
# Processed by: cddbd v1.5.2PL0 Copyright (c) Steve Scherf et al.
# Submitted via: BonkEnc v1.0.8
# 
DISCID=510d6c07
DTITLE=Dave Liebman, Richie Beirbach - Chant
DYEAR=1989
DGENRE=Contemporary Jazz
TTITLE0=Incantation Part I
TTITLE1=Incantation Part II
TTITLE2=Incantation Part III
TTITLE3=Invocation Part I
TTITLE4=Invocation Part II
TTITLE5=Invocation Part III
TTITLE6=Invocation Part IV
EXTD=
EXTT0=
EXTT1=
EXTT2=
EXTT3=
EXTT4=
EXTT5=
EXTT6=
PLAYORDER=
